# xmcd
#
# Track frame offsets:
#	150
#	13579
#	27811
#	41961
#	55067
#	70529
#	84973
#	99509
#	114734
#	129001
#	143208
#	157618
#	172220
#	186787
#	201460
#	216431
#	230164
#	244089
#	258086
#	273090
#	287304
#	300886
#	314632
#	329471
#	343638
#
# Disc length: 4770 seconds
#
# Revision: 1
# Processed by: cddbd v1.5.1PL2 Copyright (c) Steve Scherf et al.
# Submitted via: dBpowerAMP V4.0
#
DISCID=5d12a019
DTITLE=Charlie Patton - Founder of the Delta Blues 1929-1934
DYEAR=1929
DGENRE=Blues
TTITLE0=Down the Dirt Road Blues
TTITLE1=Mississippi Bo Weavil Blues
TTITLE2=Screamin' and Hollerin' The Blues
TTITLE3=Stone Pony Blues
TTITLE4=It Won't Be Long
TTITLE5=Shake It  Break It
TTITLE6=Magnolia Blue
TTITLE7=Dry Well Blues
TTITLE8=High Water Everywher Part 1
TTITLE9=High Water Everywher Part 2
TTITLE10=Green River Blues
TTITLE11=Bird Nest Bound
TTITLE12=High Sheriff Blues
TTITLE13=A Spoonful Blues
TTITLE14=Moon Going Down
TTITLE15=PonyBlues
TTITLE16=Elder Green Blues
TTITLE17=Banty Rooster Blues
TTITLE18=Some of These Days
TTITLE19=Tom Rushen Blues
TTITLE20=34 Bulls
TTITLE21=Going to Move to Alabama
TTITLE22=Hammer Blues
TTITLE23=Poor Me
TTITLE24=When Your Ways Get Dark
EXTD=
EXTT0=
EXTT1=
EXTT2=
EXTT3=
EXTT4=
EXTT5=
EXTT6=
EXTT7=
EXTT8=
EXTT9=
EXTT10=
EXTT11=
EXTT12=
EXTT13=
EXTT14=
EXTT15=
EXTT16=
EXTT17=
EXTT18=
EXTT19=
EXTT20=
EXTT21=
EXTT22=
EXTT23=
EXTT24=
PLAYORDER=
